<svg width="139" height="144" viewBox="0 0 139 144" fill="none" xmlns="http://www.w3.org/2000/svg">
<path d="M18.2599 39.3597L17.6235 40.3388L7.93066 35.1497L8.51811 34.2686L17.085 38.9191L12.5323 28.0515L13.1687 27.0234L18.2599 39.3597Z" fill="white"/>
<path d="M17.1825 22.7646L23.2528 32.4574L22.4695 33.3386L16.4482 23.6458L17.1825 22.7646Z" fill="white"/>
<path d="M21.0498 18.9952L26.5326 14.1978L26.9242 15.0789L22.3716 19.1421L24.036 22.8136L27.5117 19.7295L27.9033 20.6107L24.4276 23.6947L26.2878 27.8068L30.8405 23.7437L31.2321 24.6249L25.7983 29.4223L21.0498 18.9952Z" fill="white"/>
<path d="M41.4147 18.016L40.1419 18.7503L36.2746 9.93866L36.5683 20.8063L35.3444 21.4917L30.498 11.6031L31.4771 11.0646L35.6382 19.8762L35.3934 8.86168L36.6172 8.17633L40.6314 17.0859L40.2888 6.07133L41.3168 5.48389L41.4147 18.016Z" fill="white"/>
<path d="M59.4785 12.0439L58.6463 12.2397L53.751 4.06444L52.9188 13.4635L51.8418 13.7083L52.8698 2.30212L53.702 2.1063L58.5974 10.2815L59.4296 0.882463L60.5066 0.637695L59.4785 12.0439Z" fill="white"/>
<path d="M73.7242 3.5748C73.7732 7.00154 70.9828 11.5542 67.0665 11.6032C65.1084 11.6521 63.8846 10.1835 63.8356 8.02957C63.7867 4.60282 66.528 0.0501414 70.4443 0.00118787C72.4025 -0.0477657 73.6753 1.42084 73.7242 3.5748ZM65.0105 7.93166C65.0105 9.54713 65.7937 10.6731 67.3603 10.6731C69.9058 10.6241 72.5983 7.09945 72.5493 3.6727C72.5493 2.00828 71.7661 0.882351 70.1996 0.882351C67.5561 0.980259 64.9615 4.50491 65.0105 7.93166Z" fill="white"/>
<path d="M80.5287 3.0365L76.025 11.5055L75.0459 11.3097L80.4308 1.17627L81.8994 1.46999L80.1371 10.8201L87.7249 2.59592L89.2424 2.88964L83.8575 13.023L82.7806 12.8272L87.2843 4.35825L79.9413 12.2887L78.8643 12.0929L80.5287 3.0365Z" fill="white"/>
<path d="M95.5575 5.33694L88.7041 14.5402L87.5781 14.1486L94.4316 4.94531L95.5575 5.33694Z" fill="white"/>
<path d="M99.3758 19.3378L98.5926 18.9462L99.9143 9.49818L93.3546 16.2538L92.3755 15.7642L100.355 7.54004L101.138 7.93167L99.8164 17.3797L106.376 10.6241L107.355 11.1136L99.3758 19.3378Z" fill="white"/>
<path d="M112.104 14.7363L117.831 19.2401L116.999 19.7785L112.202 16.0091L108.922 18.3099L112.544 21.1492L111.761 21.7367L108.138 18.8974L104.467 21.4919L109.264 25.2613L108.432 25.7998L102.705 21.3451L112.104 14.7363Z" fill="white"/>
<path d="M121.454 23.2051L126.3 28.6389L125.419 29.0305L121.356 24.4779L117.733 26.1423L120.817 29.569L119.936 29.9607L116.852 26.5339L112.74 28.4431L116.803 32.9958L115.922 33.3874L111.076 27.9536L121.454 23.2051Z" fill="white"/>
<path d="M122.139 35.0517C121.797 35.1496 121.405 35.2965 121.013 35.4923C120.083 36.0308 119.447 37.0588 120.475 38.7722C121.992 41.2688 124.048 41.024 124.734 40.5835C126.692 39.3596 122.971 35.1496 125.468 33.6321C127.475 32.4082 130.021 33.9258 131.147 35.7371C132.224 37.4994 131.685 38.8211 130.461 39.6044C130.07 39.8492 129.629 39.996 129.189 40.1429L128.601 39.2128C128.944 39.1149 129.335 38.968 129.727 38.7722C130.51 38.2826 131.098 37.4015 130.217 36.0308C129.091 34.2195 127.181 33.9747 126.349 34.5132C124.44 35.6881 128.014 39.996 125.517 41.5136C123.51 42.7374 120.964 41.3667 119.545 39.0659C118.272 37.0099 118.957 35.4923 120.328 34.6601C120.72 34.4153 121.111 34.2685 121.601 34.1216L122.139 35.0517Z" fill="white"/>
<path d="M135.846 79.8446C135.944 79.6977 136.091 79.7467 136.091 79.6488C136.091 79.5998 136.042 79.5998 136.042 79.5998C135.993 79.5998 135.895 79.6488 135.895 79.6488C135.895 79.5998 135.895 79.5509 135.895 79.5509C135.895 79.5019 135.944 79.5019 135.993 79.5019C136.042 79.5019 136.042 79.5019 136.042 79.453C136.042 79.404 136.042 79.404 135.993 79.404C135.944 79.404 135.944 79.404 135.944 79.404C135.944 79.404 135.993 78.9145 136.042 78.6697C136.091 78.5229 136.091 78.327 136.14 78.1312C136.14 78.1312 136.14 78.0333 136.238 78.0333C136.287 78.0333 136.287 77.9844 136.287 77.9844C136.287 77.9354 136.287 77.9354 136.238 77.9354C136.189 77.9354 136.14 77.9354 136.14 77.9844V77.9354C136.189 77.8865 136.238 77.8375 136.287 77.8375C136.336 77.8375 136.336 77.7885 136.336 77.7885C136.336 77.7396 136.287 77.7396 136.287 77.7396C136.238 77.7396 136.189 77.7396 136.14 77.7885V77.7396C136.238 77.6417 136.287 77.5927 136.336 77.5927C136.385 77.5927 136.384 77.5438 136.384 77.5438C136.384 77.4948 136.336 77.4459 136.287 77.4948C136.238 77.4948 136.189 77.5438 136.14 77.5927V77.5438C136.238 77.4459 136.287 77.3969 136.384 77.348C136.433 77.348 136.433 77.299 136.433 77.299C136.433 77.2501 136.385 77.2011 136.336 77.2501C136.287 77.2501 136.189 77.299 136.14 77.3969V77.348C136.287 77.2011 136.384 77.1522 136.482 77.1032C136.531 77.1032 136.531 77.0542 136.531 77.0542C136.531 77.0053 136.482 76.9563 136.433 77.0053C136.336 77.0053 136.189 77.1032 136.091 77.2011V76.8584C136.238 76.7116 136.433 76.6137 136.58 76.5647C136.629 76.5647 136.629 76.5647 136.629 76.5158C136.629 76.4668 136.58 76.4668 136.531 76.4668C136.385 76.5158 136.189 76.5647 136.091 76.6626V76.6137C136.189 76.4668 136.433 76.3689 136.629 76.3199C136.678 76.3199 136.727 76.271 136.727 76.271C136.727 76.222 136.727 76.222 136.678 76.222C136.58 76.222 136.287 76.3689 136.14 76.4668V76.4179C136.287 76.271 136.482 76.1241 136.629 76.0752C136.678 76.0752 136.678 76.0262 136.678 76.0262C136.678 75.9773 136.629 75.9773 136.629 75.9773C136.58 75.9773 136.336 76.0752 136.14 76.222V76.1731C136.384 75.9773 136.531 75.8304 136.678 75.7325C136.727 75.7325 136.776 75.6835 136.776 75.5856C136.776 75.4388 136.629 75.4388 136.58 75.4877C136.433 75.5856 136.189 75.7815 135.944 75.9773C135.601 76.271 135.161 76.6137 134.72 76.8584C134.328 77.1032 133.79 77.3969 133.545 77.3969H133.398C133.349 77.3969 133.3 77.348 133.3 77.2501C133.3 77.2011 133.251 77.2011 133.203 77.2011C133.154 77.2011 133.154 77.2011 133.154 77.2501C133.154 77.299 133.203 77.348 133.203 77.348C133.154 77.299 133.056 77.299 133.056 77.2501C132.909 76.9563 132.909 76.7116 132.958 76.5647H133.056C133.056 76.5647 133.056 76.6626 133.056 76.7116C133.056 76.8584 133.105 77.1032 133.203 77.1032C133.251 77.1032 133.251 77.1032 133.251 77.0542C133.251 76.9563 133.154 76.9074 133.154 76.6626C133.154 76.6137 133.154 76.5647 133.154 76.5647C133.154 76.5647 133.154 76.5647 133.203 76.5647C133.203 76.6626 133.203 76.7605 133.251 76.8584C133.251 76.9074 133.3 76.9074 133.349 76.9074C133.398 76.8584 133.398 76.8584 133.349 76.8095C133.3 76.7116 133.3 76.6137 133.3 76.5647C133.349 76.5647 133.398 76.5647 133.398 76.5647C133.398 76.5647 133.398 76.6626 133.447 76.7116C133.447 76.7605 133.496 76.7605 133.496 76.7605C133.594 76.7605 133.545 76.6626 133.545 76.6137C133.545 76.5647 133.545 76.4668 133.545 76.4668L133.692 76.4179C133.741 76.4668 133.741 76.5158 133.79 76.5158C133.839 76.5158 133.839 76.5158 133.839 76.4668C133.839 76.4179 133.79 76.4179 133.79 76.3689L133.986 76.3199C134.035 76.3689 134.084 76.4179 134.084 76.3689C134.133 76.3689 134.133 76.3199 134.084 76.271C134.182 76.222 134.475 76.0752 134.475 76.0752H134.524C134.573 76.1241 134.622 76.0752 134.622 76.0752C134.622 76.0262 134.622 76.0262 134.622 75.9773L134.769 75.8794C134.769 75.8794 134.769 75.8794 134.818 75.8794C134.818 75.8794 134.867 75.9283 134.916 75.8794C134.965 75.8304 134.916 75.7815 134.867 75.7815L134.965 75.7325C135.014 75.7325 135.063 75.7325 135.063 75.7815C135.112 75.8304 135.161 75.8304 135.161 75.7815C135.21 75.7325 135.161 75.7325 135.161 75.6836C135.112 75.6346 135.112 75.6346 135.063 75.6346L135.161 75.5856C135.161 75.5856 135.21 75.5856 135.308 75.6346C135.356 75.6835 135.405 75.6835 135.454 75.6346C135.454 75.5856 135.454 75.5367 135.454 75.5367C135.405 75.4877 135.308 75.4388 135.308 75.4388L135.405 75.3898C135.503 75.3898 135.552 75.4877 135.601 75.4877C135.65 75.5367 135.65 75.5367 135.699 75.4877C135.699 75.4877 135.748 75.3898 135.699 75.3898C135.699 75.3409 135.65 75.3409 135.552 75.2919C135.552 75.243 135.601 75.194 135.552 75.1451C135.503 75.0472 135.454 75.0471 135.356 75.0961C135.21 75.1451 135.063 75.2919 134.867 75.4388C134.671 75.6346 134.426 75.8304 134.279 75.9283C133.888 76.1241 133.594 76.271 133.3 76.3689C133.251 76.3689 133.154 76.271 133.056 76.222C133.007 76.1731 133.007 76.1731 132.958 76.222C132.909 76.271 132.909 76.271 132.958 76.3199C133.007 76.3689 133.007 76.4179 133.105 76.4668C133.056 76.4668 133.007 76.4668 132.958 76.4668C132.86 76.4668 132.811 76.4179 132.811 76.4179C132.468 76.271 132.468 75.5367 132.468 75.2919C132.517 75.2919 132.566 75.2919 132.566 75.2919C132.566 75.4388 132.517 75.4877 132.517 75.5856C132.517 75.7815 132.566 75.8794 132.664 76.0262C132.713 76.0752 132.762 76.0752 132.811 76.0752V75.9773C132.713 75.8304 132.664 75.7325 132.713 75.2919H132.811V75.3409C132.811 75.4877 132.909 75.6346 133.056 75.6836C133.105 75.6836 133.154 75.6835 133.203 75.6346C133.203 75.5856 133.203 75.5856 133.154 75.5367C132.958 75.4877 132.958 75.3409 132.958 75.194L133.105 75.1451C133.154 75.3409 133.203 75.3898 133.349 75.4388C133.398 75.4388 133.447 75.4388 133.447 75.3898C133.447 75.3409 133.398 75.2919 133.349 75.2919C133.251 75.243 133.203 75.0961 133.203 75.0961C133.203 75.0961 133.3 75.0472 133.349 75.0472C133.349 75.0472 133.398 75.194 133.545 75.194C133.594 75.194 133.643 75.194 133.643 75.1451C133.643 75.0961 133.643 75.0961 133.594 75.0472C133.545 74.9982 133.496 74.9982 133.496 74.9492L133.643 74.8513C133.692 74.9003 133.741 74.9982 133.888 74.9982C133.937 74.9982 133.986 74.9982 133.986 74.9492C133.986 74.9003 133.937 74.9003 133.937 74.9003C133.888 74.9003 133.839 74.8513 133.79 74.8024L133.888 74.7045C133.937 74.7534 134.035 74.8513 134.231 74.8513C134.279 74.8513 134.279 74.8513 134.279 74.8024C134.279 74.7534 134.231 74.7045 134.231 74.7045C134.084 74.7045 134.035 74.6555 133.986 74.6066C134.035 74.5576 134.084 74.5087 134.133 74.5087C134.231 74.6066 134.377 74.6555 134.475 74.6066C134.524 74.6066 134.524 74.5576 134.524 74.5087C134.524 74.4597 134.475 74.4597 134.426 74.4597C134.328 74.5087 134.279 74.4108 134.279 74.4108C134.279 74.4108 134.328 74.3618 134.328 74.3129C134.328 74.2149 134.279 74.166 134.231 74.166C134.133 74.166 133.937 74.2639 133.741 74.4108C133.594 74.5087 133.398 74.6555 133.251 74.7045C132.86 74.8513 132.468 74.9003 132.126 75.0472C132.028 75.0472 131.881 74.9982 131.734 74.9492C131.587 74.8513 131.685 74.7045 131.538 74.7045C131.489 74.7045 131.489 74.7534 131.489 74.7534C131.489 74.8024 131.489 74.8024 131.489 74.8024C131.44 74.7534 131.391 74.7045 131.391 74.7045C131.342 74.5576 131.391 74.166 131.391 73.9702C131.44 73.7744 131.489 73.5786 131.685 73.4806C131.832 73.3827 132.028 73.3338 132.175 73.3338L132.126 73.3827C131.93 73.3827 131.538 73.5296 131.538 74.3129C131.538 74.3618 131.538 74.4597 131.587 74.4597C131.636 74.4597 131.685 74.4108 131.685 74.4108C131.685 73.7744 131.881 73.6275 132.077 73.5785V73.6275C132.028 73.6765 131.979 73.7254 131.979 73.7744C131.979 73.8233 131.979 73.8233 132.028 73.8723C132.077 73.8723 132.077 73.8723 132.126 73.8233L132.223 73.7744C132.223 73.7744 132.37 73.7254 132.419 73.8233C132.468 73.8723 132.468 73.8723 132.517 73.8723C132.566 73.8723 132.566 73.8233 132.517 73.7744C132.468 73.6765 132.37 73.6765 132.37 73.6765L132.419 73.6275C132.517 73.6275 132.615 73.6275 132.664 73.6765C132.664 73.7254 132.713 73.7254 132.762 73.7254C132.811 73.7254 132.811 73.6765 132.762 73.6275C132.713 73.5296 132.566 73.4806 132.517 73.4806L132.615 73.3827C132.713 73.3827 132.811 73.3827 132.909 73.4806C132.909 73.5296 132.958 73.5296 133.007 73.4806C133.056 73.4806 133.056 73.4317 133.007 73.3827C132.909 73.2848 132.811 73.2359 132.713 73.2359L132.811 73.138C132.958 73.138 133.056 73.1869 133.154 73.2848C133.203 73.3338 133.203 73.3338 133.251 73.2848C133.3 73.2359 133.3 73.2359 133.251 73.1869C133.154 73.089 133.056 73.0401 132.958 73.0401L133.056 72.9911C133.154 72.9911 133.251 72.9911 133.398 73.089C133.447 73.138 133.447 73.138 133.496 73.089C133.545 73.0401 133.496 72.9911 133.496 72.9911C133.447 72.8932 133.251 72.8442 133.154 72.8442V72.7463C133.251 72.7463 133.3 72.7463 133.3 72.7463C133.349 72.7953 133.349 72.7953 133.398 72.7463C133.447 72.6974 133.398 72.6974 133.398 72.6484C133.349 72.5995 133.251 72.5995 133.154 72.5995C133.154 72.5505 133.154 72.4526 133.154 72.4037C133.203 72.3058 133.3 72.2568 133.3 72.2078C133.3 72.1589 133.3 72.1589 133.251 72.1589C133.203 72.1589 133.105 72.2568 133.105 72.2568V72.2078C133.154 72.012 133.3 71.9631 133.3 71.8652C133.3 71.8162 133.3 71.8162 133.251 71.8162C133.203 71.8162 133.056 72.012 133.056 72.012C133.056 71.9631 133.056 71.9631 133.056 71.9631C133.105 71.8162 133.154 71.7183 133.251 71.6204C133.3 71.6204 133.3 71.5715 133.251 71.5225C133.251 71.4735 133.203 71.4735 133.154 71.5225C133.056 71.5715 133.007 71.6694 133.007 71.7673V71.7183C133.056 71.6204 133.105 71.3756 133.251 71.2288C133.3 71.1798 133.3 71.1798 133.251 71.1309C133.251 71.0819 133.203 71.0819 133.154 71.1309C133.056 71.2288 132.958 71.3267 132.909 71.4735C132.958 71.2777 133.007 70.984 133.203 70.8371C133.251 70.8371 133.251 70.7882 133.251 70.7392C133.251 70.7392 133.203 70.6903 133.154 70.7392C133.007 70.8371 132.958 70.984 132.86 71.1309C132.909 70.8861 133.056 70.4455 133.398 70.2987C133.447 70.2987 133.447 70.2497 133.447 70.2008C133.447 70.1518 133.398 70.1518 133.349 70.1518C133.007 70.2497 132.86 70.5924 132.762 70.8861V70.7882C132.86 70.4455 133.203 69.907 133.594 69.907C133.643 69.907 133.643 69.907 133.692 69.8581C133.692 69.8091 133.643 69.7602 133.594 69.7602C133.251 69.7602 132.86 70.2008 132.713 70.5434V70.4945C132.762 70.3476 132.909 70.1028 133.105 69.8581C133.3 69.6623 133.545 69.5644 133.79 69.5644C133.888 69.5644 133.937 69.6133 133.937 69.6133C133.986 69.6133 134.035 69.6133 134.035 69.5644C134.035 69.5154 133.937 69.4664 133.79 69.4664C133.3 69.4664 132.909 69.8581 132.762 70.2497V70.1518C132.909 69.8581 133.3 69.0748 134.231 69.2217C134.279 69.2217 134.328 69.2217 134.328 69.1727C134.328 69.1238 134.328 69.0748 134.279 69.0748C133.545 68.928 133.007 69.3685 132.762 69.8091V69.7112C133.007 69.2706 133.447 68.879 133.986 68.879C134.035 68.879 134.035 68.879 134.035 68.8301C134.035 68.7811 134.035 68.7811 133.986 68.7321C133.545 68.7321 133.105 68.9769 132.86 69.3196C133.056 68.9769 133.398 68.6832 133.741 68.6342C133.79 68.6342 133.839 68.5853 133.839 68.5853C133.839 68.5363 133.79 68.4874 133.741 68.4874C133.496 68.4874 133.154 68.7321 132.958 68.9769C133.056 68.7321 133.349 68.4874 133.594 68.3895C133.643 68.3895 133.692 68.3405 133.692 68.2916C133.692 68.2426 133.643 68.1937 133.594 68.1937C133.496 68.1937 133.251 68.2916 133.251 68.2916C133.398 68.0958 133.545 67.9978 133.741 67.9489C133.839 67.9489 133.888 67.8999 133.888 67.802C133.888 67.7531 133.839 67.7041 133.79 67.7041C133.643 67.7041 133.398 67.851 133.398 67.851V67.802C133.496 67.6552 133.692 67.5083 133.986 67.4594C134.035 67.4594 134.084 67.4104 134.035 67.3615C134.035 67.3125 133.986 67.3125 133.937 67.3125C133.692 67.4104 133.496 67.4594 133.349 67.6062V67.5083C133.496 67.3614 133.741 67.2146 134.035 67.1656C134.084 67.1656 134.133 67.1167 134.133 67.0677C134.133 67.0188 134.084 67.0188 134.035 67.0188C133.79 67.0677 133.545 67.1656 133.349 67.3125V67.2635C133.545 67.0677 133.888 66.8719 134.279 66.8719C134.377 66.8719 134.377 66.8719 134.377 66.823C134.377 66.774 134.328 66.7251 134.279 66.7251C133.888 66.7251 133.545 66.9209 133.3 67.0677V67.0188C133.594 66.6761 134.28 66.5292 134.818 66.5782C134.867 66.5782 134.916 66.5782 134.916 66.5292C134.916 66.4803 134.867 66.4313 134.818 66.4313C134.28 66.4313 133.594 66.5292 133.251 66.8719V66.823C133.594 66.3824 134.818 66.1866 135.454 66.3334C135.503 66.3334 135.552 66.3334 135.552 66.2845C135.552 66.2355 135.503 66.2355 135.503 66.1866C135.161 66.0887 134.671 66.0887 134.231 66.1866C133.937 66.2355 133.496 66.3334 133.251 66.6271C133.349 66.4313 133.692 65.9908 135.112 65.9908C136.58 65.9908 137.364 66.6761 137.364 66.6761V66.823C137.315 66.774 137.266 66.7251 137.217 66.7251C137.217 66.7251 137.168 66.725 137.168 66.774C137.168 66.823 137.168 66.8719 137.217 66.8719C137.266 66.9209 137.364 66.9698 137.413 67.0188V67.0677C137.413 67.0677 137.364 67.0188 137.315 67.0188C137.266 67.0188 137.266 67.0188 137.266 67.0677C137.266 67.1167 137.315 67.1656 137.315 67.1656C137.413 67.2146 137.461 67.3125 137.461 67.3125C137.559 67.9978 137.706 68.7811 137.706 69.1727C137.657 69.5154 137.755 70.3476 137.902 71.3267C138.049 72.8442 138.245 74.7045 138.098 75.243C137.951 75.7325 137.853 76.7116 137.706 77.5927C137.657 78.0823 137.608 78.5718 137.51 78.9145C137.461 78.6697 137.119 78.5718 137.07 78.5718C137.021 78.5718 137.021 78.5718 137.021 78.6208C137.021 78.6697 137.021 78.6697 137.07 78.7187C137.364 78.8655 137.413 79.0124 137.461 79.1103C137.413 79.404 137.364 79.453 137.266 79.8446C136.874 81.0195 136.531 82.3412 136.384 82.586C136.384 82.635 136.385 82.635 136.336 82.635C136.238 82.537 136.091 82.2433 136.091 81.9007C136.091 81.6069 136.189 81.4601 136.287 81.2643C136.482 81.2643 136.531 81.4601 136.58 81.4601C136.629 81.4601 136.629 81.4601 136.629 81.4111C136.629 81.3132 136.433 81.1174 136.189 81.1174C136.189 81.1174 135.846 81.4111 135.846 81.9986C135.846 82.1944 135.846 82.3412 135.944 82.586C135.699 82.4881 135.601 82.2923 135.601 81.9007C135.503 80.7747 135.699 80.2852 135.846 79.8446ZM136.433 80.5789C136.531 80.6279 136.531 80.6768 136.58 80.6768C136.629 80.6768 136.629 80.6768 136.629 80.6279C136.629 80.5299 136.531 80.432 136.433 80.432C136.384 80.432 136.384 80.432 136.384 80.481C136.384 80.5299 136.384 80.5789 136.433 80.5789ZM131.587 77.0053C131.587 77.0053 131.636 77.0542 131.685 77.0542C131.734 77.0542 131.734 77.0542 131.734 77.0053C131.734 76.9074 131.636 76.9074 131.636 76.7116L131.734 76.5647C131.734 76.6626 131.783 76.9074 131.881 76.9074C131.93 76.9074 131.93 76.8584 131.93 76.8584C131.93 76.8095 131.881 76.7116 131.881 76.5158C131.881 76.4179 131.881 76.3199 131.881 76.3199C131.881 76.271 131.93 76.222 131.93 76.222V76.271C131.93 76.5158 132.028 76.9074 132.175 76.9074L132.223 76.8584C132.223 76.7605 132.077 76.6626 132.077 76.0752L132.175 75.9773C132.175 76.0262 132.175 76.1241 132.175 76.1731C132.175 76.3199 132.174 76.5647 132.321 76.5647C132.37 76.5647 132.37 76.5647 132.37 76.5158C132.37 76.4668 132.321 76.4179 132.321 76.1241C132.37 76.1731 132.419 76.222 132.517 76.271C132.517 76.271 132.468 76.3689 132.468 76.4668C132.468 76.7116 132.664 76.9074 132.713 77.1032C132.517 77.299 132.175 77.4948 131.93 77.4948C131.832 77.4948 131.783 77.4459 131.734 77.3969C131.587 77.3969 131.538 77.2011 131.587 77.0053ZM132.37 76.7116C132.321 76.7116 132.321 76.7605 132.321 76.8095C132.321 76.9074 132.419 77.0542 132.517 77.0542C132.566 77.0542 132.566 77.0542 132.566 77.0053C132.566 76.9563 132.468 76.9074 132.468 76.8095C132.419 76.7605 132.419 76.7116 132.37 76.7116ZM132.811 76.5158C132.811 76.5647 132.762 76.6137 132.762 76.7116C132.762 76.6626 132.713 76.5647 132.713 76.5158H132.811ZM136.972 78.4739C136.923 78.4739 136.923 78.4739 136.923 78.5229C136.923 78.5718 137.021 78.6208 137.021 78.6697C137.07 78.7187 137.119 78.7676 137.168 78.7676C137.217 78.7676 137.217 78.7676 137.217 78.7187C137.217 78.6208 137.07 78.4739 136.972 78.4739ZM132.321 75.0961C132.321 75.0961 132.321 75.194 132.321 75.243C132.321 75.2919 132.321 75.4388 132.321 75.5367C132.272 75.3898 132.272 75.194 132.272 75.0961H132.321ZM131.734 73.8723C131.685 73.9212 131.685 74.0681 131.685 74.2149C131.685 74.3618 131.685 74.5576 131.783 74.7045C131.783 74.7534 131.832 74.8024 131.881 74.8024C131.93 74.8024 131.93 74.7534 131.93 74.7534C131.832 74.5087 131.881 74.0681 131.881 73.9702C131.881 73.9212 131.881 73.8723 131.832 73.8723C131.783 73.8233 131.783 73.8233 131.734 73.8723ZM132.223 72.9911C132.028 72.9911 131.783 73.0401 131.538 73.2359C131.44 73.2848 131.391 73.4317 131.342 73.5296C131.342 73.3827 131.391 73.2359 131.44 73.138C131.636 73.0401 131.979 72.8932 132.223 72.9911ZM136.042 75.0472C135.944 74.9982 135.895 75.0472 135.895 75.0472C135.895 75.0472 135.797 75.0471 135.797 75.0961C135.797 75.1451 135.846 75.1451 135.846 75.1451C135.895 75.1451 135.895 75.1451 135.944 75.1451C135.993 75.1451 136.042 75.1451 136.042 75.0961C136.091 75.0471 136.091 75.0472 136.042 75.0472ZM131.93 72.7463C132.077 72.7463 132.223 72.7463 132.321 72.7953L132.37 72.8442L132.321 72.8932C132.174 72.7953 131.979 72.8442 131.783 72.8442L131.93 72.7463ZM135.063 74.2639C135.014 74.3128 134.916 74.3128 134.818 74.2639C134.769 74.2639 134.72 74.2639 134.72 74.3129C134.72 74.3618 134.769 74.4108 134.769 74.4108C134.818 74.4597 135.014 74.4597 135.112 74.3618C135.112 74.3618 135.161 74.3128 135.112 74.2639H135.063ZM136.238 74.8513C136.238 74.8024 136.189 74.7534 136.14 74.7534C135.993 74.7534 135.895 74.7534 135.846 74.8024C135.797 74.8024 135.797 74.8513 135.797 74.9003C135.797 74.9492 135.846 74.9492 135.895 74.9492C135.895 74.9492 135.993 74.9492 136.14 74.9492C136.189 74.9003 136.238 74.9003 136.238 74.8513ZM135.21 73.9702C135.161 73.9212 135.112 73.9702 135.112 73.9702C135.063 74.0191 135.063 74.0191 134.965 74.0191C134.916 74.0191 134.916 74.0191 134.867 74.0191C134.818 73.9702 134.818 73.9702 134.769 74.0191C134.72 74.0681 134.769 74.117 134.769 74.117C134.818 74.166 134.867 74.166 134.965 74.166C135.063 74.166 135.161 74.117 135.21 74.0191C135.259 74.0191 135.259 73.9702 135.21 73.9702ZM132.175 72.5995C132.419 72.5995 132.468 72.6974 132.468 72.6974L132.419 72.7463L132.37 72.6974C132.321 72.6484 132.174 72.6484 132.077 72.6484L132.175 72.5995ZM132.615 72.5995C132.517 72.5995 132.468 72.5505 132.419 72.5016C132.468 72.5016 132.566 72.5505 132.615 72.5995ZM133.937 72.8932C133.839 72.8932 133.79 72.7953 133.692 72.7953C133.643 72.7953 133.643 72.7953 133.643 72.8442C133.643 72.9422 133.839 73.0401 133.937 73.0401C133.986 73.0401 134.035 73.0401 134.035 72.9911C133.986 72.9422 133.937 72.8932 133.937 72.8932ZM134.328 72.8442C134.328 72.7953 134.279 72.7953 134.231 72.7953C134.133 72.7953 134.035 72.7463 133.986 72.6974C133.937 72.6484 133.888 72.6974 133.888 72.6974C133.888 72.7463 133.888 72.7463 133.937 72.7953C133.986 72.8442 134.133 72.9421 134.279 72.8932L134.328 72.8442ZM134.475 68.6342C134.426 68.5853 134.377 68.5853 134.328 68.5853C134.28 68.5853 134.231 68.5853 134.231 68.6342C134.231 68.6832 134.28 68.7321 134.328 68.7321C134.426 68.7321 134.377 68.7321 134.426 68.7811C134.475 68.7811 134.524 68.7811 134.524 68.7321C134.524 68.7321 134.524 68.6832 134.475 68.6342ZM134.084 68.2426C134.035 68.2426 134.035 68.2426 133.986 68.2426C133.937 68.2426 133.888 68.2426 133.888 68.2916C133.888 68.3405 133.888 68.3405 133.937 68.3405C133.986 68.3405 133.986 68.3405 134.035 68.3405C134.084 68.3405 134.133 68.3405 134.133 68.2916C134.133 68.2916 134.133 68.2916 134.084 68.2426ZM138 63.641C137.706 63.2983 137.217 62.9556 137.119 62.9556C137.07 62.9556 137.07 62.9556 137.07 63.0046C137.07 63.0535 137.07 63.0535 137.119 63.1025C137.608 63.3962 137.853 63.6899 138 63.8857V63.9837C137.804 63.7878 137.559 63.5431 137.217 63.3473C137.168 63.3473 137.119 63.2983 137.119 63.3473C137.119 63.3962 137.119 63.3962 137.168 63.4452C137.608 63.6899 137.902 63.9837 138.049 64.2284V64.3263C137.902 64.1305 137.608 63.9347 137.315 63.7389C137.266 63.7389 137.217 63.6899 137.217 63.7389C137.168 63.7878 137.217 63.8368 137.266 63.8368C137.657 64.0816 137.951 64.3753 138.098 64.5711V64.669C137.951 64.4732 137.706 64.2774 137.413 64.1305C137.364 64.0816 137.315 64.1305 137.315 64.1305C137.315 64.1795 137.315 64.2284 137.364 64.2284C137.706 64.4732 138 64.718 138.147 64.9138V65.0117C138 64.8648 137.804 64.669 137.559 64.5221C137.51 64.4732 137.461 64.4732 137.461 64.5221C137.413 64.5711 137.461 64.6201 137.51 64.6201C137.804 64.8159 138.098 65.0606 138.196 65.2075V65.3054C138.049 65.1585 137.853 64.9627 137.608 64.8648C137.559 64.8159 137.51 64.8159 137.51 64.8648C137.51 64.9138 137.51 64.9627 137.559 64.9627C137.853 65.1585 138.098 65.3544 138.245 65.5502V65.6481C138.098 65.5012 137.853 65.3054 137.706 65.2075C137.657 65.1585 137.608 65.2075 137.608 65.2075C137.608 65.2564 137.608 65.3054 137.657 65.3544C137.902 65.5502 138.147 65.697 138.245 65.8928C138.245 65.8928 138.245 66.1376 138.245 66.2845C138.245 66.774 137.657 66.9209 137.657 66.9209V66.823C137.657 66.823 138.098 66.6761 138.098 66.2845C138.098 65.9418 137.853 65.6481 137.559 65.5502C137.51 65.5012 137.413 65.5502 137.413 65.6481C137.413 65.697 137.461 65.746 137.461 65.7949C137.657 65.9418 137.804 66.0887 137.804 66.3334C137.804 66.6271 137.559 66.6271 137.559 66.6271V66.5782C137.559 66.5782 137.657 66.5292 137.657 66.3824C137.657 65.8439 136.433 65.3544 135.063 65.3054C133.545 65.3054 132.468 65.7949 132.468 66.1376C132.468 66.3824 132.811 66.4803 132.811 66.4803V66.5292C132.811 66.5292 132.321 66.4803 132.321 66.1376C132.321 65.6481 133.545 65.1096 134.867 65.1096C135.895 65.1096 136.531 65.2564 136.972 65.5012C137.021 65.5502 137.119 65.5012 137.168 65.4523C137.217 65.4033 137.168 65.3054 137.119 65.2564C136.629 64.9627 135.944 64.8159 134.867 64.8159C133.447 64.8159 132.028 65.3544 132.028 66.0397C132.028 66.4803 132.517 66.6761 132.86 66.7251V66.9209C132.174 66.823 131.881 66.5292 131.881 65.9908V65.5991C132.028 65.4033 132.37 65.1585 132.811 64.9627C133.888 64.5221 135.699 64.3263 137.021 64.9627C137.07 64.9627 137.119 65.0117 137.119 64.9627C137.168 64.9138 137.119 64.8648 137.07 64.8648C135.699 64.2284 133.888 64.3753 132.762 64.8648C132.37 65.0117 132.077 65.2075 131.881 65.4033V65.2075C132.077 64.9627 132.419 64.7669 132.909 64.5711C133.986 64.1795 135.65 63.9837 136.825 64.5711C136.874 64.62 136.874 64.62 136.923 64.5711C136.972 64.5221 136.923 64.4732 136.874 64.4732C135.65 63.8857 133.937 64.0326 132.86 64.4732C132.419 64.62 132.077 64.8159 131.881 65.0117V64.8159C132.468 64.1305 135.014 63.4452 136.678 64.1795C136.727 64.2284 136.776 64.1795 136.776 64.1795C136.776 64.1305 136.776 64.0816 136.727 64.0816C135.161 63.3473 132.664 63.8857 131.881 64.6201V64.4242C132.174 64.1305 132.86 63.7878 133.692 63.641C134.769 63.4452 135.748 63.4941 136.482 63.8368C136.531 63.8368 136.58 63.8368 136.58 63.7878C136.58 63.7389 136.58 63.7389 136.531 63.6899C135.112 63.0535 132.713 63.5431 131.881 64.2284V64.0326C132.174 63.7389 132.86 63.4452 133.692 63.2983C134.72 63.1025 135.699 63.1514 136.336 63.4452C136.385 63.4941 136.433 63.4452 136.433 63.3962C136.433 63.3473 136.433 63.2983 136.384 63.2983C135.014 62.7109 132.713 63.2004 131.881 63.8368V63.641C132.566 63.0535 134.867 62.5151 136.14 63.0535C136.189 63.0535 136.238 63.0535 136.238 63.0535C136.287 63.0046 136.238 62.9556 136.189 62.9556C134.916 62.4171 132.664 62.9067 131.881 63.4941V63.2494C132.419 62.8088 133.741 62.4661 134.916 62.4661C135.308 62.4661 135.65 62.515 135.944 62.613C135.993 62.613 136.042 62.613 136.042 62.564C136.042 62.5151 136.042 62.515 135.993 62.4661C135.699 62.3682 135.259 62.2703 134.867 62.2703C133.79 62.2703 132.468 62.613 131.93 63.0046V62.8088C131.93 62.8088 133.056 62.0255 134.769 62.0745C137.364 62.0745 138.098 63.641 138.098 63.641H138ZM134.182 66.3824C134.182 66.4313 134.231 66.4803 134.279 66.4803C134.328 66.4803 134.377 66.4803 134.377 66.4313C134.377 66.3824 134.328 66.3334 134.279 66.3334C134.231 66.2845 134.182 66.3334 134.182 66.3824ZM134.867 65.9908C134.818 65.9908 134.769 65.9907 134.769 66.0397C134.769 66.0887 134.818 66.1376 134.867 66.1376C134.965 66.1376 135.014 66.1866 135.014 66.1866C135.063 66.1866 135.063 66.1866 135.112 66.1376C135.112 65.9908 134.965 65.9908 134.867 65.9908ZM135.797 65.8439C135.797 65.8439 135.699 65.7949 135.601 65.746C135.552 65.746 135.503 65.746 135.503 65.7949C135.503 65.8439 135.503 65.8928 135.601 65.8928C135.699 65.9418 135.748 65.9418 135.797 65.9908C135.846 65.9908 135.895 65.9907 135.895 65.9418C135.895 65.8928 135.846 65.8928 135.797 65.8439ZM137.315 65.1585C137.315 65.1585 137.364 65.2075 137.413 65.1585C137.461 65.1585 137.461 65.1096 137.413 65.0606C137.364 65.0117 137.364 64.9627 137.266 64.9627C137.217 64.9627 137.168 64.9627 137.168 65.0117C137.168 65.0606 137.217 65.0606 137.217 65.1096C137.266 65.1096 137.266 65.1585 137.315 65.1585ZM137.07 64.718C137.119 64.718 137.168 64.7669 137.217 64.8159C137.266 64.8648 137.266 64.8648 137.315 64.8159C137.364 64.7669 137.315 64.718 137.315 64.718C137.266 64.669 137.217 64.62 137.119 64.5711C137.07 64.5711 137.021 64.5711 137.021 64.6201C137.021 64.669 137.07 64.669 137.07 64.718ZM136.923 64.2774C136.972 64.3263 137.07 64.3753 137.119 64.3753C137.168 64.4242 137.266 64.4732 137.266 64.4242C137.315 64.3753 137.217 64.2774 137.168 64.2774C137.119 64.2284 137.021 64.1795 136.972 64.1795C136.923 64.1795 136.874 64.1795 136.874 64.2284C136.874 64.2284 136.874 64.2774 136.923 64.2774ZM136.972 63.9837L137.07 64.0326C137.119 64.0816 137.168 64.0816 137.168 64.0326C137.168 63.9837 137.168 63.9347 137.119 63.9347L137.021 63.8857C136.972 63.8368 136.874 63.7878 136.825 63.7878C136.776 63.7878 136.776 63.7878 136.727 63.8368C136.727 63.8857 136.727 63.9347 136.776 63.9347C136.825 63.8858 136.874 63.9347 136.972 63.9837ZM136.58 63.4452L136.972 63.641C137.021 63.6899 137.07 63.641 137.07 63.641C137.119 63.592 137.07 63.5431 137.021 63.5431C136.874 63.4452 136.727 63.3962 136.629 63.3473C136.58 63.3473 136.531 63.3473 136.531 63.3962C136.531 63.4452 136.58 63.4452 136.58 63.4452ZM136.433 63.0535C136.531 63.1025 136.678 63.1514 136.776 63.2004L136.923 63.2983C136.972 63.2983 137.021 63.2983 137.021 63.2494C137.07 63.1514 136.923 63.1025 136.874 63.1025C136.776 63.0535 136.678 63.0046 136.531 62.9556C136.482 62.9556 136.433 62.9556 136.433 63.0046C136.336 63.0046 136.384 63.0535 136.433 63.0535ZM136.238 62.6619C136.384 62.7109 136.58 62.8088 136.727 62.8577C136.776 62.9067 136.874 62.9556 136.923 62.9067C136.972 62.8577 136.825 62.7598 136.776 62.7598C136.629 62.6619 136.482 62.613 136.287 62.564C136.238 62.564 136.189 62.564 136.189 62.613C136.189 62.613 136.238 62.613 136.238 62.6619Z" fill="white"/>
<path d="M119.838 104.076L120.475 103.097L130.119 108.384L129.531 109.265L121.013 104.566L125.468 115.433L124.783 116.461L119.838 104.076Z" fill="white"/>
<path d="M120.768 120.622L114.747 110.881L115.53 110L121.552 119.741L120.768 120.622Z" fill="white"/>
<path d="M116.852 124.392L111.369 129.19L110.978 128.309L115.579 124.295L113.964 120.623L110.488 123.658L110.097 122.777L113.572 119.742L111.712 115.63L107.11 119.644L106.719 118.763L112.202 113.965L116.852 124.392Z" fill="white"/>
<path d="M96.5363 125.225L97.809 124.49L101.627 133.351L101.432 122.483L102.655 121.798L107.355 131.735L106.376 132.274L102.313 123.413L102.509 134.428L101.285 135.113L97.3195 126.204L97.5153 137.218L96.4873 137.806L96.5363 125.225Z" fill="white"/>
<path d="M78.4238 131.099L79.256 130.903L84.1024 139.127L85.0325 129.728L86.1095 129.532L84.9836 140.938L84.1514 141.134L79.3049 132.91L78.3748 142.309L77.2979 142.505L78.4238 131.099Z" fill="white"/>
<path d="M64.1289 139.421C64.1289 135.994 66.9193 131.441 70.8355 131.441C72.7937 131.441 74.0175 132.861 74.0175 135.015C74.0175 138.491 71.2761 142.994 67.3109 143.043C65.4017 143.043 64.1289 141.624 64.1289 139.421ZM72.8916 135.113C72.8916 133.497 72.1083 132.323 70.5908 132.372C68.0452 132.372 65.3527 135.896 65.3527 139.323C65.3527 140.987 66.136 142.113 67.6536 142.113C70.2481 142.064 72.8916 138.54 72.8916 135.113Z" fill="white"/>
<path d="M57.3246 139.91L61.8772 131.49L62.8563 131.686L57.4225 141.771L55.9539 141.477L57.7652 132.176L50.1284 140.302L48.6108 140.008L54.0936 129.924L55.1706 130.12L50.6179 138.54L58.0099 130.658L59.0869 130.854L57.3246 139.91Z" fill="white"/>
<path d="M42.2959 137.512L49.1983 128.357L50.3243 128.749L43.4218 137.903L42.2959 137.512Z" fill="white"/>
<path d="M38.5756 123.511L39.3589 123.903L38.0371 133.351L44.5969 126.595L45.576 127.085L37.5965 135.309L36.8133 134.917L38.135 125.469L31.5753 132.225L30.5962 131.735L38.5756 123.511Z" fill="white"/>
<path d="M25.7984 128.014L20.0708 123.462L20.903 122.923L25.7005 126.742L29.0293 124.49L25.4067 121.601L26.19 121.063L29.8126 123.951L33.533 121.406L28.7356 117.587L29.5678 117.049L35.2464 121.553L25.7984 128.014Z" fill="white"/>
<path d="M16.5465 119.497L11.749 114.014L12.6302 113.622L16.6444 118.224L20.3159 116.56L17.2808 113.084L18.1619 112.692L21.1971 116.168L25.3092 114.308L21.295 109.706L22.1761 109.314L26.9736 114.748L16.5465 119.497Z" fill="white"/>
<path d="M15.9586 107.65C16.3012 107.552 16.6929 107.405 17.0845 107.209C18.0146 106.671 18.7 105.643 17.623 103.929C16.1054 101.433 14.0983 101.629 13.364 102.069C11.3569 103.293 15.0774 107.503 12.6297 109.021C10.5737 110.244 8.07705 108.727 6.95112 106.867C5.87414 105.104 6.41263 103.783 7.68542 102.999C8.07705 102.754 8.51763 102.608 8.95822 102.461L9.54566 103.391C9.20298 103.489 8.81136 103.636 8.41973 103.831C7.63647 104.321 7.04903 105.153 7.93019 106.573C9.00717 108.384 10.9653 108.629 11.7486 108.139C13.6578 106.964 10.1331 102.657 12.6297 101.139C14.6368 99.9152 17.1824 101.286 18.6021 103.636C19.8749 105.692 19.1406 107.209 17.8188 108.041C17.4272 108.286 17.0356 108.433 16.546 108.58L15.9586 107.65Z" fill="white"/>
<path d="M0.244768 78.9632C0.538489 79.3059 1.02802 79.6485 1.12593 79.6485C1.17488 79.6485 1.17488 79.6485 1.17488 79.5996C1.17488 79.5996 1.17488 79.5506 1.12593 79.5017C0.636396 79.208 0.391628 78.9142 0.244768 78.7184V78.6205C0.440582 78.8163 0.685349 79.0611 1.02802 79.2569C1.07698 79.2569 1.12593 79.3059 1.12593 79.2569C1.12593 79.208 1.12593 79.159 1.07698 79.159C0.636396 78.9142 0.342675 78.6205 0.195814 78.3758V78.2778C0.342675 78.4737 0.636396 78.6695 0.930117 78.8653C0.979071 78.8653 1.02802 78.9142 1.02802 78.8653C1.07698 78.8163 1.02802 78.7674 0.979071 78.7674C0.587442 78.5226 0.293721 78.2289 0.146861 78.0331V77.9352C0.293721 78.131 0.538489 78.3268 0.83221 78.4737C0.881164 78.5226 0.930117 78.4737 0.930117 78.4737C0.930117 78.4247 0.930117 78.3758 0.881164 78.3758C0.538489 78.131 0.244768 77.8862 0.0979071 77.6904V77.5925C0.244768 77.7394 0.440582 77.9352 0.685349 78.082C0.734303 78.131 0.783256 78.131 0.783256 78.082C0.83221 78.0331 0.783256 77.9841 0.734303 77.9841C0.440582 77.7883 0.146861 77.5435 0.0489535 77.3967V77.2988C0.195814 77.4456 0.391628 77.6415 0.636396 77.7394C0.685349 77.7883 0.734303 77.7883 0.734303 77.7394C0.783256 77.6904 0.734303 77.6415 0.685349 77.6415C0.391628 77.4456 0.146861 77.2498 0 77.054V76.9561C0.146861 77.103 0.391628 77.2988 0.538489 77.3967C0.587442 77.4456 0.636396 77.3967 0.636396 77.3967C0.636396 77.3477 0.636396 77.2988 0.587442 77.2498C0.342675 77.054 0.0979071 76.9071 0 76.7113C0 76.7113 0 76.4666 0 76.3197C0 75.8302 0.587442 75.6833 0.587442 75.6833V75.8302C0.587442 75.8302 0.146861 75.977 0.146861 76.3687C0.146861 76.7113 0.391628 77.0051 0.685349 77.103C0.734303 77.1519 0.83221 77.103 0.83221 77.0051C0.83221 76.9561 0.783256 76.9071 0.783256 76.8582C0.587442 76.7113 0.440582 76.5645 0.440582 76.3197C0.440582 76.026 0.685349 76.026 0.685349 76.026V76.0749C0.685349 76.0749 0.587442 76.1239 0.587442 76.2708C0.587442 76.7603 1.81128 77.3477 3.18198 77.3477C4.69954 77.3477 5.77652 76.9071 5.77652 76.5155C5.77652 76.2708 5.43384 76.1728 5.43384 76.1728V76.0749C5.43384 76.0749 5.92338 76.1239 5.92338 76.4666C5.92338 76.9561 4.69954 77.4946 3.37779 77.4456C2.39872 77.4456 1.71337 77.2988 1.27279 77.054C1.22384 77.0051 1.12593 77.054 1.07698 77.103C1.02802 77.1519 1.07698 77.2498 1.12593 77.2988C1.61547 77.5925 2.30082 77.7394 3.37779 77.7394C4.79745 77.7394 6.2171 77.2009 6.2171 76.5155C6.2171 76.0749 5.72756 75.8791 5.38489 75.8302V75.6344C6.07024 75.7323 6.36396 76.026 6.36396 76.5645V76.9561C6.2171 77.1519 5.87442 77.3967 5.43384 77.5925C4.35686 78.0331 2.54558 78.1799 1.22384 77.5435C1.17488 77.5435 1.12593 77.4946 1.12593 77.5435C1.07698 77.5925 1.12593 77.6415 1.17488 77.6415C2.54558 78.3268 4.35686 78.131 5.4828 77.6904C5.87442 77.5435 6.16814 77.3477 6.36396 77.1519V77.3477C6.16814 77.5925 5.82547 77.7883 5.33594 77.9841C4.25896 78.3758 2.59454 78.5226 1.41965 77.9841C1.3707 77.9352 1.3707 77.9352 1.32175 77.9841C1.27279 78.0331 1.32175 78.082 1.3707 78.082C2.59454 78.6695 4.30791 78.5226 5.38489 78.131C5.82547 77.9841 6.16814 77.7883 6.36396 77.5925V77.7883C5.77652 78.4737 3.23093 79.159 1.56651 78.3758C1.51756 78.3268 1.46861 78.3758 1.46861 78.3758C1.46861 78.4247 1.46861 78.4737 1.51756 78.4737C3.08407 79.208 5.5807 78.7184 6.36396 77.9841V78.1799C6.07024 78.4737 5.38489 78.8163 4.55268 78.9632C3.4757 79.159 2.49663 79.1101 1.76233 78.7674C1.71337 78.7674 1.66442 78.7674 1.66442 78.8163C1.66442 78.8653 1.66442 78.9142 1.71337 78.9142C3.13303 79.5506 5.53175 79.0611 6.36396 78.3758V78.5716C6.07024 78.8653 5.38489 79.159 4.55268 79.3059C3.52465 79.5017 2.54558 79.4527 1.90919 79.159C1.86023 79.1101 1.81128 79.159 1.81128 79.208C1.81128 79.2569 1.81128 79.3059 1.86023 79.3059C3.23093 79.8933 5.53175 79.4527 6.36396 78.8163V79.0611C5.67861 79.6485 3.32884 80.187 2.105 79.6485C2.05605 79.6485 2.00709 79.6485 2.00709 79.6485C1.95814 79.6975 2.00709 79.7464 2.05605 79.7464C3.32884 80.2849 5.5807 79.8444 6.36396 79.208V79.4527C5.82547 79.8933 4.50373 80.236 3.32884 80.187C2.93721 80.187 2.59454 80.1381 2.30082 80.0402C2.25186 80.0402 2.20291 80.0402 2.20291 80.0891C2.20291 80.1381 2.20291 80.1381 2.25186 80.187C2.54558 80.2849 2.98617 80.3828 3.37779 80.3828C4.45477 80.3828 5.77652 80.0402 6.31501 79.6485V79.8444C6.31501 79.8444 5.18907 80.5787 3.4757 80.5787C0.881164 80.5297 0.146861 79.0121 0.146861 79.0121L0.244768 78.9632ZM2.00709 79.9423C1.86023 79.8933 1.66442 79.7954 1.51756 79.7464C1.46861 79.6975 1.3707 79.6485 1.32175 79.6975C1.27279 79.7465 1.41965 79.8444 1.46861 79.8444C1.61547 79.9423 1.76233 79.9912 1.95814 80.0402C2.00709 80.0402 2.05605 80.0402 2.05605 79.9912C2.05605 79.9912 2.05605 79.9423 2.00709 79.9423ZM1.86023 79.5506C1.76233 79.5017 1.61547 79.4527 1.51756 79.4038L1.3707 79.3059C1.32175 79.3059 1.27279 79.3059 1.27279 79.3548C1.22384 79.4527 1.3707 79.5017 1.41965 79.5017C1.51756 79.5506 1.61547 79.5996 1.76233 79.6485C1.81128 79.6485 1.86023 79.6485 1.86023 79.5996C1.90919 79.5506 1.86023 79.5506 1.86023 79.5506ZM1.66442 79.1101L1.27279 78.9142C1.22384 78.8653 1.17488 78.9142 1.17488 78.9142C1.12593 78.9632 1.17488 79.0121 1.22384 79.0121C1.3707 79.1101 1.51756 79.159 1.61547 79.208C1.66442 79.208 1.71337 79.208 1.71337 79.159C1.76233 79.159 1.71337 79.159 1.66442 79.1101ZM1.32175 78.6205L1.22384 78.5716C1.17488 78.5226 1.12593 78.5226 1.12593 78.5716C1.07698 78.6205 1.12593 78.6695 1.17488 78.6695L1.27279 78.7184C1.32175 78.7674 1.41965 78.8163 1.46861 78.8163C1.51756 78.8163 1.56651 78.8163 1.56651 78.7674C1.56651 78.7674 1.56651 78.7184 1.51756 78.6695C1.46861 78.6695 1.3707 78.6205 1.32175 78.6205ZM1.3707 78.2778C1.32175 78.2289 1.22384 78.1799 1.17488 78.1799C1.12593 78.131 1.02802 78.082 1.02802 78.131C0.979071 78.1799 1.07698 78.2778 1.12593 78.2778C1.17488 78.3268 1.27279 78.3758 1.32175 78.3758C1.3707 78.3758 1.41965 78.3758 1.41965 78.3268C1.41965 78.3268 1.41965 78.3268 1.3707 78.2778ZM1.17488 77.8862C1.12593 77.8862 1.07698 77.8373 1.02802 77.7883C1.02802 77.7394 0.979071 77.7394 0.930117 77.7883C0.881164 77.8373 0.930117 77.8862 0.930117 77.8862C0.979071 77.9352 1.02802 77.9841 1.12593 78.0331C1.17488 78.0331 1.22384 78.0331 1.22384 77.9841C1.22384 77.9352 1.22384 77.8862 1.17488 77.8862ZM0.979071 77.3967C0.979071 77.3477 0.930117 77.3477 0.881164 77.3967C0.83221 77.3967 0.83221 77.4456 0.881164 77.4946C0.930117 77.5435 0.930117 77.5925 1.02802 77.5925C1.07698 77.5925 1.12593 77.5925 1.12593 77.5435C1.12593 77.4946 1.07698 77.4456 1.07698 77.4456C1.02802 77.4456 0.979071 77.4456 0.979071 77.3967ZM2.54558 62.7596C2.44768 62.9064 2.30082 62.8575 2.30082 62.9554C2.30082 63.0043 2.34977 63.0043 2.34977 63.0043C2.44768 63.0043 2.49663 62.9554 2.49663 62.9554C2.49663 63.0043 2.49663 63.0533 2.49663 63.0533C2.49663 63.1023 2.44768 63.1022 2.39872 63.1022C2.34977 63.1022 2.34977 63.1023 2.34977 63.1512C2.34977 63.2002 2.34977 63.2002 2.39872 63.2002C2.44768 63.2002 2.44768 63.2002 2.44768 63.2002C2.44768 63.2002 2.39872 63.6897 2.34977 63.9345C2.30082 64.0813 2.30082 64.2771 2.25186 64.4729C2.25186 64.4729 2.25186 64.5709 2.15396 64.5709C2.105 64.5709 2.05605 64.6198 2.05605 64.6198C2.05605 64.6688 2.05605 64.6688 2.105 64.6688C2.15396 64.6688 2.20291 64.6688 2.20291 64.6198V64.6688C2.15396 64.7177 2.105 64.7667 2.05605 64.7667C2.00709 64.7667 2.00709 64.8156 2.00709 64.8156C2.00709 64.8646 2.05605 64.8646 2.05605 64.8646C2.105 64.8646 2.15396 64.8646 2.20291 64.8156V64.8646C2.105 64.9625 2.05605 65.0114 2.00709 65.0114C1.95814 65.0114 1.95814 65.0604 1.95814 65.0604C1.95814 65.1093 2.00709 65.1583 2.05605 65.1093C2.105 65.1093 2.15396 65.0604 2.20291 65.0114V65.0604C2.105 65.1583 2.05605 65.2073 1.95814 65.2562C1.90919 65.2562 1.90919 65.3052 1.90919 65.3052C1.90919 65.3541 1.95814 65.4031 2.00709 65.3541C2.105 65.3541 2.15396 65.3052 2.20291 65.2073V65.2562C2.05605 65.4031 1.95814 65.452 1.86023 65.501C1.81128 65.501 1.81128 65.5499 1.81128 65.5499C1.81128 65.5989 1.86023 65.6478 1.90919 65.5989C2.00709 65.5989 2.15396 65.501 2.25186 65.4031V65.452C2.105 65.5989 1.90919 65.6968 1.76233 65.7457C1.71337 65.7457 1.71337 65.7457 1.71337 65.7947C1.71337 65.8436 1.76233 65.8436 1.81128 65.8436C1.95814 65.7947 2.15396 65.7457 2.25186 65.6478V65.6968C2.15396 65.8436 1.90919 65.9416 1.71337 65.9905C1.66442 65.9905 1.61547 66.0395 1.61547 66.0395C1.61547 66.0884 1.61547 66.0884 1.66442 66.0884C1.76233 66.0884 2.05605 65.9416 2.20291 65.8436V65.8926C2.05605 66.0395 1.86023 66.1863 1.71337 66.2353C1.66442 66.2353 1.66442 66.2842 1.66442 66.2842C1.66442 66.3332 1.66442 66.3332 1.71337 66.3332C1.76233 66.3332 2.00709 66.2353 2.20291 66.0884V66.1374C1.95814 66.3332 1.81128 66.48 1.66442 66.578C1.61547 66.578 1.56651 66.6269 1.56651 66.7248C1.56651 66.8717 1.71337 66.8717 1.76233 66.8227C1.90919 66.7248 2.15396 66.529 2.39872 66.3332C2.7414 66.0395 3.18198 65.6968 3.62256 65.452C4.01419 65.2073 4.55268 64.9135 4.79745 64.9135H4.94431C4.99326 64.9135 5.04221 64.9625 5.04221 65.0604C5.04221 65.1093 5.09117 65.1093 5.14012 65.1093C5.18907 65.1093 5.18907 65.1093 5.18907 65.0604C5.18907 65.0114 5.14012 64.9625 5.14012 64.9625C5.18907 65.0114 5.28698 65.0114 5.28698 65.0604C5.43384 65.3541 5.43384 65.5989 5.38489 65.7457H5.28698C5.28698 65.7457 5.28698 65.6478 5.28698 65.5989C5.28698 65.452 5.23803 65.2073 5.14012 65.2073C5.09117 65.2073 5.09117 65.2073 5.09117 65.2562C5.09117 65.3541 5.18907 65.4031 5.18907 65.6478C5.18907 65.6968 5.18907 65.7457 5.18907 65.7457C5.18907 65.7457 5.18907 65.7457 5.14012 65.7457C5.14012 65.6478 5.14012 65.5499 5.09117 65.452C5.09117 65.4031 5.04221 65.4031 4.99326 65.4031C4.94431 65.4031 4.94431 65.452 4.99326 65.501C5.04221 65.5989 5.04221 65.6968 5.04221 65.7457H4.94431C4.94431 65.7457 4.94431 65.6478 4.89535 65.5989C4.89535 65.5499 4.8464 65.5499 4.8464 65.5499C4.74849 65.5499 4.79745 65.6478 4.79745 65.6968C4.79745 65.7457 4.79745 65.8436 4.79745 65.8436L4.65059 65.8926C4.65059 65.8437 4.60163 65.7947 4.55268 65.7947C4.50373 65.7947 4.50372 65.7947 4.50372 65.8436C4.50372 65.8926 4.55268 65.8926 4.55268 65.9416L4.35686 65.9905C4.30791 65.9416 4.25896 65.8926 4.25896 65.9416C4.21 65.9416 4.21 65.9905 4.25896 66.0395C4.16105 66.0884 3.86733 66.2353 3.86733 66.2353H3.81838C3.81838 66.1863 3.72047 66.2353 3.72047 66.2353C3.72047 66.2842 3.72047 66.2842 3.72047 66.3332L3.57361 66.4311H3.52465C3.52465 66.4311 3.4757 66.3821 3.42675 66.4311C3.37779 66.48 3.42675 66.529 3.4757 66.529L3.37779 67.0675C3.32884 67.0675 3.27989 67.0675 3.27989 67.0185C3.27989 66.9696 3.23093 66.9696 3.18198 67.0185C3.13303 67.0675 3.18198 67.0675 3.18198 67.1164C3.23093 67.1654 3.23093 67.1654 3.27989 67.1654L3.18198 67.2143C3.18198 67.2143 3.13303 67.2143 3.03512 67.1654C2.98617 67.1164 2.93721 67.1164 2.88826 67.1654C2.8393 67.2143 2.88826 67.2143 2.88826 67.2633C2.93721 67.3123 3.03512 67.3612 3.03512 67.3612L2.93721 67.4102C2.8393 67.4102 2.79035 67.3123 2.7414 67.3123C2.69244 67.2633 2.69244 67.2633 2.64349 67.3123C2.59454 67.3123 2.59454 67.4102 2.64349 67.4102C2.64349 67.4591 2.69244 67.4591 2.79035 67.5081C2.7414 67.557 2.7414 67.606 2.79035 67.6549C2.8393 67.7528 2.88826 67.7528 2.98617 67.7039C3.13303 67.6549 3.27989 67.5081 3.4757 67.3612C3.67151 67.1654 3.91628 66.9696 4.06314 66.8717C4.45477 66.6759 4.74849 66.529 5.04221 66.4311C5.09117 66.4311 5.18907 66.529 5.28698 66.578C5.33594 66.6269 5.33593 66.6269 5.38489 66.578C5.43384 66.529 5.43384 66.529 5.38489 66.48C5.33593 66.4311 5.33593 66.3821 5.23803 66.3332C5.28698 66.3332 5.33593 66.3332 5.38489 66.3332C5.4828 66.3332 5.53175 66.3821 5.53175 66.3821C5.87442 66.529 5.87442 67.2633 5.87442 67.5081C5.82547 67.5081 5.77652 67.5081 5.77652 67.5081C5.77652 67.4102 5.82547 67.3123 5.82547 67.2143C5.82547 67.0185 5.77652 66.9206 5.67861 66.7738C5.62966 66.7248 5.5807 66.7248 5.53175 66.7248C5.4828 66.7248 5.53175 66.7738 5.53175 66.8227C5.62966 66.9696 5.67861 67.0675 5.62966 67.5081H5.53175V67.4591C5.53175 67.3123 5.43384 67.1654 5.28698 67.1164C5.23803 67.1164 5.18907 67.1164 5.14012 67.1654C5.14012 67.2143 5.14012 67.2143 5.18907 67.2633C5.33594 67.3123 5.38489 67.4591 5.38489 67.606L5.23803 67.6549C5.18907 67.4591 5.14012 67.4102 4.99326 67.3612C4.94431 67.3612 4.89535 67.3612 4.89535 67.4102C4.89535 67.4591 4.94431 67.5081 4.99326 67.5081C5.09117 67.557 5.14012 67.7039 5.14012 67.7039C5.14012 67.7039 5.04221 67.7528 4.99326 67.7528C4.99326 67.7528 4.94431 67.606 4.79745 67.606C4.74849 67.606 4.69954 67.606 4.69954 67.6549C4.69954 67.7039 4.69954 67.7528 4.74849 67.7528C4.79745 67.8018 4.8464 67.8018 4.8464 67.8507L4.69954 67.9487C4.65059 67.8997 4.60163 67.8018 4.45477 67.8018C4.40582 67.8018 4.35686 67.8018 4.35686 67.8507C4.35686 67.8997 4.40582 67.9487 4.40582 67.9487C4.50372 67.9487 4.50373 67.9976 4.55268 68.0466L4.45477 68.1445C4.40582 68.0955 4.30791 67.9976 4.1121 67.9976C4.06314 67.9976 4.01419 67.9976 4.01419 68.0466C4.01419 68.0955 4.06314 68.1445 4.06314 68.1445C4.21 68.1445 4.25896 68.1934 4.30791 68.2424C4.25896 68.2913 4.21 68.3403 4.16105 68.3403C4.06314 68.2424 3.91628 68.1934 3.81838 68.2424C3.76942 68.2424 3.76942 68.2913 3.76942 68.3403C3.76942 68.3892 3.81838 68.3892 3.86733 68.3892C3.96524 68.3403 4.01419 68.4382 4.01419 68.4382C4.01419 68.4382 4.06314 68.3892 4.06314 68.4382C4.06314 68.5361 4.1121 68.585 4.16105 68.585C4.25896 68.585 4.45477 68.4871 4.65059 68.3403C4.79745 68.2424 4.99326 68.0955 5.14012 68.0466C5.53175 67.8997 5.92338 67.8507 6.26605 67.7039C6.36396 67.7039 6.51082 67.7528 6.65768 67.8018C6.80454 67.8997 6.70663 68.0466 6.85349 68.0466C6.90245 68.0466 6.90245 67.9976 6.90245 67.9976C6.90245 67.9486 6.90245 67.9487 6.90245 67.9487C6.9514 67.9976 7.00035 68.0466 7.00035 68.0466C7.04931 68.1934 7.00035 68.585 7.00035 68.7809C6.9514 68.9767 6.90245 69.1725 6.70663 69.2704C6.55977 69.3683 6.36396 69.4173 6.2171 69.4173L6.26605 69.3683C6.46187 69.3683 6.85349 69.2214 6.85349 68.4382C6.85349 68.3892 6.85349 68.2913 6.80454 68.2913C6.75559 68.2913 6.70663 68.3403 6.70663 68.3403C6.70663 68.9767 6.51082 69.1235 6.31501 69.1725V69.1235C6.36396 69.0746 6.41291 69.0256 6.41291 68.9767C6.41291 68.9277 6.41291 68.9277 6.36396 68.8788C6.31501 68.8788 6.31501 68.8788 6.26605 68.9277L6.16815 68.9767C6.16815 68.9767 6.02128 69.0256 5.97233 68.9277C5.92338 68.8788 5.92338 68.8788 5.87442 68.8788C5.82547 68.8788 5.82547 68.9277 5.87442 68.9767C5.92338 69.0746 6.02128 69.0746 6.02128 69.0746L5.97233 69.1235C5.87442 69.1235 5.77652 69.1235 5.72756 69.0746C5.72756 69.0256 5.67861 69.0256 5.62966 69.0256C5.5807 69.0256 5.5807 69.0746 5.62966 69.1235C5.67861 69.2214 5.82547 69.2704 5.87442 69.2704L5.77652 69.3683C5.72756 69.3683 5.5807 69.3683 5.4828 69.2704C5.4828 69.2214 5.43384 69.2214 5.38489 69.2704C5.33593 69.2704 5.33593 69.3193 5.38489 69.3683C5.4828 69.4662 5.5807 69.5152 5.67861 69.5152L5.5807 69.6131C5.43384 69.6131 5.33593 69.5641 5.23803 69.4662C5.18907 69.4173 5.18907 69.4173 5.14012 69.4662C5.09117 69.5152 5.09117 69.5152 5.14012 69.5641C5.23803 69.662 5.33594 69.711 5.43384 69.711L5.33594 69.7599C5.23803 69.7599 5.14012 69.7599 4.99326 69.662C4.94431 69.6131 4.94431 69.6131 4.89535 69.662C4.8464 69.711 4.89535 69.7599 4.89535 69.7599C4.94431 69.8578 5.14012 69.9068 5.23803 69.9068V70.0047C5.14012 70.0047 5.09117 70.0047 5.09117 70.0047C5.04221 69.9557 5.04221 69.9557 4.99326 70.0047C4.94431 70.0537 4.99326 70.0536 4.99326 70.1026C5.04221 70.1516 5.14012 70.1516 5.23803 70.1516C5.23803 70.2005 5.23803 70.2984 5.23803 70.3474C5.18907 70.4453 5.09117 70.4942 5.09117 70.5432C5.09117 70.5921 5.09117 70.5921 5.14012 70.5921C5.18907 70.5921 5.28698 70.4942 5.28698 70.4942V70.5432C5.23803 70.739 5.09117 70.788 5.09117 70.8859C5.09117 70.9348 5.09117 70.9348 5.14012 70.9348C5.18907 70.9348 5.33594 70.739 5.33594 70.739C5.33594 70.788 5.33594 70.788 5.33594 70.788C5.28698 70.9348 5.23803 71.0327 5.14012 71.1306C5.09117 71.1306 5.09117 71.1796 5.14012 71.2285C5.14012 71.2775 5.18907 71.2775 5.23803 71.2285C5.33593 71.1796 5.38489 71.0817 5.38489 70.9838V71.0327C5.33593 71.1306 5.28698 71.3754 5.14012 71.5223C5.09117 71.5712 5.09117 71.5712 5.14012 71.6202C5.14012 71.6691 5.18907 71.6691 5.23803 71.6202C5.33593 71.5223 5.43384 71.4244 5.4828 71.2775C5.43384 71.4244 5.38489 71.767 5.18907 71.9139C5.14012 71.9139 5.14012 71.9628 5.14012 72.0118C5.14012 72.0607 5.18907 72.0607 5.23803 72.0118C5.38489 71.9139 5.43384 71.767 5.53175 71.6202C5.4828 71.8649 5.33593 72.3055 4.99326 72.4524C4.94431 72.4524 4.94431 72.5013 4.94431 72.5503C4.94431 72.5992 4.99326 72.5992 5.04221 72.5992C5.38489 72.5013 5.53175 72.1587 5.62966 71.8649V71.9628C5.53175 72.3055 5.18907 72.844 4.79745 72.844C4.74849 72.844 4.69954 72.844 4.69954 72.893C4.69954 72.9419 4.74849 72.9909 4.79745 72.9909C5.14012 72.9909 5.53175 72.5503 5.67861 72.2076V72.2566C5.62966 72.4034 5.4828 72.6482 5.28698 72.893C5.09117 73.0888 4.8464 73.1867 4.60163 73.1867C4.50373 73.1867 4.50373 73.1377 4.45477 73.1377C4.40582 73.1377 4.35686 73.1377 4.35686 73.1867C4.35686 73.2356 4.45477 73.2846 4.60163 73.2846C5.09117 73.2846 5.4828 72.893 5.62966 72.5013V72.5992C5.4828 72.893 5.04221 73.6762 4.16105 73.5294C4.1121 73.5294 4.06314 73.5294 4.06314 73.5783C4.06314 73.6273 4.06314 73.6762 4.1121 73.6762C4.8464 73.8231 5.38489 73.3825 5.62966 72.9419V73.0398C5.38489 73.4804 4.94431 73.872 4.40582 73.872C4.35686 73.872 4.30791 73.872 4.30791 73.921C4.30791 73.9699 4.30791 73.9699 4.35686 74.0189C4.79745 74.0189 5.23803 73.7741 5.4828 73.4314C5.28698 73.7741 4.94431 74.0678 4.60163 74.1168C4.55268 74.1168 4.50372 74.1657 4.50372 74.1657C4.50372 74.2147 4.55268 74.2637 4.60163 74.2637C4.8464 74.2637 5.18907 74.0189 5.38489 73.7741C5.28698 74.0189 4.99326 74.2637 4.74849 74.3616C4.69954 74.3616 4.65059 74.4105 4.65059 74.4595C4.65059 74.5084 4.69954 74.5574 4.74849 74.5574C4.8464 74.5574 5.09117 74.4595 5.09117 74.4595C4.94431 74.6553 4.79745 74.7532 4.60163 74.8021C4.50373 74.8021 4.45477 74.8511 4.45477 74.949C4.45477 74.998 4.50373 75.0469 4.55268 75.0469C4.69954 75.0469 4.94431 74.9001 4.94431 74.9001V74.949C4.8464 75.0959 4.65059 75.2427 4.35686 75.2917C4.30791 75.2917 4.25896 75.3406 4.30791 75.3896C4.30791 75.4385 4.35686 75.4385 4.40582 75.4385C4.65059 75.3406 4.8464 75.2917 4.99326 75.1448V75.2427C4.8464 75.3896 4.60163 75.5364 4.30791 75.5854C4.25896 75.5854 4.21 75.6344 4.21 75.6833C4.21 75.7323 4.25896 75.7323 4.30791 75.7323C4.55268 75.6833 4.79745 75.5854 4.99326 75.4385V75.4875C4.79745 75.6833 4.45477 75.8791 4.06314 75.8791C3.96524 75.8791 3.96524 75.8791 3.96524 75.9281C3.96524 75.977 4.01419 76.026 4.06314 76.026C4.45477 76.026 4.79745 75.8302 5.04221 75.6833V75.7812C4.74849 76.1239 4.06314 76.2707 3.52465 76.2218C3.4757 76.2218 3.42675 76.2218 3.42675 76.2708C3.42675 76.3197 3.4757 76.3687 3.52465 76.3687C4.06314 76.3687 4.74849 76.2707 5.09117 75.977V76.026C4.74849 76.4666 3.52465 76.6624 2.88826 76.4666C2.8393 76.4666 2.79035 76.4666 2.79035 76.5155C2.79035 76.5645 2.79035 76.5645 2.8393 76.6134C3.18198 76.7113 3.67151 76.7113 4.1121 76.6624C4.40582 76.6134 4.8464 76.5155 5.09117 76.2218C4.99326 76.4176 4.65059 76.8582 3.23093 76.8582C1.76233 76.8582 0.979071 76.1728 0.979071 76.1728V76.026C1.02802 76.0749 1.07698 76.1239 1.12593 76.1239C1.17488 76.1239 1.17488 76.1239 1.17488 76.0749C1.17488 76.026 1.17488 75.977 1.12593 75.977C1.07698 75.9281 0.979071 75.8791 0.930117 75.8302V75.7323C0.930117 75.7323 0.979071 75.7812 1.02802 75.7812C1.07698 75.7812 1.07698 75.7812 1.07698 75.7323C1.07698 75.6833 1.02802 75.6344 1.02802 75.6344C0.930117 75.5854 0.881164 75.4875 0.881164 75.4875C0.783256 74.8021 0.636396 74.0189 0.636396 73.6273C0.685349 73.2846 0.587442 72.4524 0.489535 71.4733C0.342675 69.9557 0.146861 68.0955 0.293721 67.557C0.440582 67.0675 0.587442 66.0884 0.685349 65.2073C0.734303 64.7177 0.783256 64.2282 0.881164 63.8855C0.930117 64.1303 1.27279 64.2282 1.32175 64.2282C1.3707 64.2282 1.3707 64.2282 1.3707 64.1792C1.3707 64.1303 1.3707 64.0813 1.32175 64.0813C1.02802 63.9345 0.979071 63.7876 0.930117 63.6897C0.979071 63.396 1.02802 63.347 1.12593 62.9554C1.56651 61.7805 1.90919 60.4588 2.00709 60.214L2.05605 60.165C2.15396 60.2629 2.30082 60.5567 2.30082 60.8993C2.30082 61.1931 2.20291 61.3399 2.105 61.5357C1.90919 61.5357 1.86023 61.3399 1.81128 61.3399C1.76233 61.3399 1.76233 61.3399 1.76233 61.3889C1.76233 61.4868 1.95814 61.6826 2.20291 61.6826C2.20291 61.6826 2.54558 61.3889 2.54558 60.8014C2.54558 60.6056 2.54558 60.4588 2.44768 60.214C2.69244 60.3119 2.79035 60.5077 2.79035 60.8993C2.8393 61.8295 2.69244 62.319 2.54558 62.7596ZM2.49663 76.7603C2.49663 76.7603 2.59454 76.8092 2.69244 76.8582C2.7414 76.8582 2.79035 76.8582 2.79035 76.8092C2.79035 76.7603 2.79035 76.7113 2.69244 76.7113C2.59454 76.6624 2.54558 76.6624 2.49663 76.6134C2.44768 76.6134 2.39872 76.6134 2.39872 76.6624C2.39872 76.7113 2.44768 76.7113 2.49663 76.7603ZM3.42675 76.6134C3.4757 76.6134 3.52465 76.6134 3.52465 76.5645C3.52465 76.5155 3.4757 76.4666 3.42675 76.4666C3.32884 76.4666 3.27989 76.4176 3.27989 76.4176C3.23093 76.4176 3.23093 76.4176 3.18198 76.4666C3.18198 76.5645 3.32884 76.6134 3.42675 76.6134ZM4.1121 76.2218C4.1121 76.1728 4.06314 76.1239 4.01419 76.1239C3.96524 76.1239 3.91628 76.1239 3.91628 76.1728C3.91628 76.2218 3.96524 76.2708 4.01419 76.2708C4.06314 76.3197 4.1121 76.2707 4.1121 76.2218ZM4.21 74.3616C4.25896 74.3616 4.25896 74.3616 4.30791 74.3616C4.35686 74.3616 4.40582 74.3616 4.40582 74.3126C4.40582 74.2637 4.40582 74.2637 4.35686 74.2637C4.30791 74.2637 4.30791 74.2637 4.25896 74.2637C4.21 74.2637 4.21 74.2637 4.16105 74.3126C4.16105 74.3126 4.16105 74.3126 4.21 74.3616ZM3.81838 73.9699C3.86733 74.0189 3.91628 74.0189 3.96524 74.0189C4.01419 74.0189 4.06314 74.0189 4.06314 73.9699C4.06314 73.872 4.01419 73.872 3.96524 73.872C3.86733 73.872 3.91628 73.872 3.86733 73.8231C3.81838 73.8231 3.81838 73.8231 3.76942 73.872C3.76942 73.872 3.81838 73.921 3.81838 73.9699ZM4.01419 69.7599C4.01419 69.8089 4.06314 69.8089 4.1121 69.8089C4.21 69.8089 4.30791 69.8578 4.35686 69.9068C4.40582 69.9557 4.45477 69.9068 4.45477 69.9068C4.45477 69.8578 4.45477 69.8089 4.40582 69.8089C4.35686 69.7599 4.21 69.662 4.06314 69.711C4.01419 69.711 4.01419 69.7599 4.01419 69.7599ZM4.40582 69.711C4.50372 69.711 4.55268 69.8089 4.65059 69.8089C4.69954 69.8089 4.69954 69.8089 4.69954 69.7599C4.69954 69.662 4.50372 69.5641 4.40582 69.5641C4.35686 69.5641 4.30791 69.5641 4.30791 69.6131C4.35686 69.662 4.35686 69.711 4.40582 69.711ZM5.72756 70.0047C5.77652 70.0047 5.87442 70.0536 5.92338 70.1026C5.82547 70.1026 5.77652 70.0537 5.72756 70.0047ZM3.13303 68.634C3.18198 68.683 3.23093 68.634 3.23093 68.634C3.27989 68.585 3.27989 68.585 3.37779 68.585C3.42675 68.585 3.42675 68.585 3.42675 68.585C3.42675 68.634 3.4757 68.634 3.52465 68.585C3.57361 68.5361 3.52465 68.4871 3.52465 68.4871C3.4757 68.4382 3.42675 68.4382 3.32884 68.4382C3.23093 68.4382 3.13303 68.4871 3.08407 68.585C3.08407 68.585 3.08407 68.634 3.13303 68.634ZM6.16815 70.0047C5.92338 70.0047 5.87442 69.9068 5.87442 69.9068L5.92338 69.8578L5.97233 69.9068C6.02128 69.9557 6.16814 69.9557 6.26605 69.9557L6.16815 70.0047ZM2.105 67.7528C2.105 67.8018 2.15396 67.8507 2.20291 67.8507C2.34977 67.8507 2.44768 67.8507 2.49663 67.8018C2.54558 67.8018 2.54558 67.7528 2.54558 67.7039C2.54558 67.6549 2.49663 67.6549 2.44768 67.6549C2.39872 67.6549 2.34977 67.6549 2.20291 67.6549C2.15396 67.7039 2.105 67.7039 2.105 67.7528ZM3.27989 68.3403C3.32884 68.2913 3.42675 68.2913 3.52465 68.3403C3.57361 68.3403 3.62256 68.3403 3.62256 68.2913C3.62256 68.2424 3.57361 68.1934 3.57361 68.1934C3.52465 68.1445 3.32884 68.1445 3.23093 68.2424C3.18198 68.2424 3.18198 68.2913 3.23093 68.3403H3.27989ZM6.41291 69.8578C6.26605 69.8578 6.11919 69.8578 6.02128 69.8089L5.97233 69.7599L6.02128 69.711C6.16814 69.8089 6.36396 69.7599 6.55977 69.7599L6.41291 69.8578ZM6.11919 69.6131C6.31501 69.6131 6.55977 69.5641 6.80454 69.3683C6.90245 69.3193 6.9514 69.1725 7.00035 69.0746C7.00035 69.2214 6.9514 69.3683 6.90245 69.4662C6.70663 69.6131 6.36396 69.711 6.11919 69.6131ZM2.30082 67.557C2.39872 67.606 2.44768 67.557 2.44768 67.557C2.44768 67.557 2.49663 67.557 2.54558 67.5081C2.54558 67.4591 2.49663 67.4591 2.49663 67.4591C2.44768 67.4591 2.44768 67.4591 2.34977 67.4591C2.30082 67.4591 2.25186 67.4591 2.25186 67.5081C2.25186 67.557 2.25186 67.557 2.30082 67.557ZM6.60873 68.7809C6.65768 68.7319 6.65768 68.585 6.65768 68.4382C6.65768 68.2913 6.65768 68.0955 6.55977 67.9487C6.55977 67.8997 6.51082 67.8507 6.46187 67.8507C6.41291 67.8507 6.41291 67.8997 6.41291 67.8997C6.51082 68.1445 6.46187 68.585 6.46187 68.683C6.46187 68.7319 6.46187 68.7809 6.51082 68.7809C6.55977 68.8298 6.55977 68.7809 6.60873 68.7809ZM6.02128 67.5081C6.02128 67.5081 6.02128 67.4102 6.02128 67.3612C6.02128 67.3123 6.02128 67.1654 6.02128 67.0675C6.07024 67.2143 6.07024 67.4102 6.07024 67.5081H6.02128ZM1.3707 64.0813C1.41965 64.0813 1.41965 64.0813 1.41965 64.0324C1.41965 63.9834 1.32175 63.9345 1.32175 63.8855C1.27279 63.8366 1.22384 63.7876 1.17488 63.7876C1.17488 63.7876 1.12593 63.7876 1.12593 63.8365C1.12593 63.9345 1.32175 64.0813 1.3707 64.0813ZM6.80454 65.5989C6.80454 65.5989 6.75559 65.5499 6.70663 65.5499C6.65768 65.5499 6.65768 65.5499 6.65768 65.5989C6.65768 65.6968 6.75559 65.6968 6.75559 65.8926L6.65768 66.0395C6.65768 65.9416 6.60873 65.6968 6.51082 65.6968C6.46187 65.6968 6.46187 65.7457 6.46187 65.7457C6.46187 65.7947 6.51082 65.8926 6.51082 66.0884C6.51082 66.1863 6.51082 66.2842 6.51082 66.2842L6.46187 66.3821V66.3332C6.46187 66.0884 6.36396 65.6968 6.2171 65.6968C6.16814 65.6968 6.16815 65.6968 6.16815 65.7457C6.16815 65.8436 6.31501 65.9416 6.31501 66.529L6.2171 66.6269C6.2171 66.578 6.2171 66.48 6.2171 66.4311C6.2171 66.2842 6.2171 66.0395 6.07024 66.0395C6.02128 66.0395 6.02128 66.0395 6.02128 66.0884C6.02128 66.1863 6.07024 66.1863 6.07024 66.48C6.02128 66.4311 5.97233 66.3821 5.87442 66.3332C5.87442 66.3332 5.92338 66.2353 5.92338 66.1374C5.92338 65.8926 5.72756 65.6968 5.67861 65.501C5.87442 65.3052 6.2171 65.1093 6.46187 65.1093C6.55977 65.1093 6.60873 65.1583 6.65768 65.2073C6.75559 65.2073 6.80454 65.4031 6.80454 65.5989ZM5.5807 66.0884C5.5807 66.0395 5.62966 65.9905 5.62966 65.8926C5.62966 65.9416 5.67861 66.0395 5.67861 66.0884H5.5807ZM5.97233 65.8926C6.02128 65.8926 6.02128 65.8436 6.02128 65.7947C6.02128 65.6968 5.92338 65.5499 5.82547 65.5499C5.77652 65.5499 5.77652 65.5499 5.77652 65.5989C5.77652 65.6478 5.87442 65.6968 5.87442 65.7947C5.92338 65.8926 5.92338 65.8926 5.97233 65.8926ZM1.95814 62.0253C1.86023 61.9763 1.86023 61.9274 1.81128 61.9274C1.76233 61.9274 1.76233 61.9274 1.76233 61.9763C1.76233 62.0742 1.86023 62.1721 1.95814 62.1721C2.00709 62.1721 2.00709 62.1721 2.00709 62.1232C2.00709 62.0253 2.00709 62.0253 1.95814 62.0253Z" fill="white"/>
</svg>
